#N canvas -8 -8 1920 997 12;
#X obj 614 447 dewco, f 16;
#X obj 658 681 dac~;
#X obj 373 61 hsl 128 15 0 127 0 0 empty empty empty -2 -8 0 10 -262144
-1 -1 5400 1;
#X obj 373 152 mtof~;
#X obj 855 271 hsl 128 15 0 514 0 0 empty empty empty -2 -8 0 10 -262144
-1 -1 8100 1;
#X obj 597 202 hsl 128 15 0 514 0 0 empty empty empty -2 -8 0 10 -262144
-1 -1 3700 1;
#X obj 821 227 hsl 128 15 0 514 0 0 empty empty empty -2 -8 0 10 -262144
-1 -1 6700 1;
#X text 967 221 ratio input?;
#X text 999 269 wave index input 1;
#X text 372 40 pitch1 input;
#X text 455 199 wave index input 2;
#X obj 219 214 vsl 15 128 0 20 0 0 empty empty empty 0 -9 0 10 -262144
-1 -1 5500 1;
#X obj 338 225 vsl 15 128 0 1 0 0 empty empty empty 0 -9 0 10 -262144
-1 -1 8700 1;
#X text 222 187 wave fold1;
#X text 313 203 wave fold2;
#X floatatom 856 66 5 0 0 0 - - -;
#X obj 806 175 mtof~;
#X obj 824 116 +;
#X floatatom 855 146 5 0 0 0 - - -;
#X msg 836 412 0.1, f 4;
#X msg 796 405 0;
#X obj 736 570 dewca;
#X obj 591 574 dewca;
#X obj 844 528 dewlfo;
#X obj 911 310 vsl 15 128 0.1 10 0 0 empty empty empty 0 -9 0 10 -262144
-1 -1 1100 1;
#X obj 847 474 dewlfo, f 7;
#X obj 231 364 dewlfo;
#X floatatom 393 98 5 0 0 0 - - -;
#X obj 367 369 dewlfo;
#X text 1108 412 -Add default values to DEWCO -Add next VCO (NEDCO)
-Add VCF? -Add more wavetables to DEWCO -Envelope/LFO Module -Sequencer
-Clock Module (could also include this into LFO module) -Add wavetable
waveshaper? -S&H Sequencer? -Mixer Module;
#X obj 224 650 dewco2;
#X connect 0 0 22 0;
#X connect 0 1 21 0;
#X connect 2 0 3 0;
#X connect 2 0 17 0;
#X connect 2 0 27 0;
#X connect 3 0 0 0;
#X connect 4 0 0 6;
#X connect 5 0 0 2;
#X connect 6 0 0 5;
#X connect 11 0 26 0;
#X connect 12 0 28 0;
#X connect 15 0 17 1;
#X connect 16 0 0 3;
#X connect 17 0 16 0;
#X connect 17 0 18 0;
#X connect 18 0 16 0;
#X connect 19 0 21 2;
#X connect 19 0 22 2;
#X connect 20 0 21 2;
#X connect 20 0 22 2;
#X connect 21 0 1 0;
#X connect 21 0 1 1;
#X connect 22 0 1 0;
#X connect 22 0 1 1;
#X connect 23 0 21 1;
#X connect 24 0 25 0;
#X connect 25 0 22 1;
#X connect 25 1 23 0;
#X connect 26 0 0 1;
#X connect 28 0 0 4;
