#N canvas 533 45 1156 870 12;
#X obj 658 681 dac~;
#X obj 368 63 hsl 128 15 0 127 0 0 empty empty empty -2 -8 0 10 -262144
-1 -1 4500 1;
#X obj 373 152 mtof~;
#X obj 590 20 hsl 128 15 0 514 0 0 empty empty empty -2 -8 0 10 -262144
-1 -1 4300 1;
#X text 372 40 pitch1 input;
#X obj 250 26 vsl 15 128 0 10 0 0 empty empty empty 0 -9 0 10 -262144
-1 -1 1600 1;
#X obj 727 153 mtof~;
#X obj 745 94 +;
#X floatatom 776 124 5 0 0 0 - - -;
#X msg 836 412 0.1, f 4;
#X obj 736 570 dewca;
#X obj 591 574 dewca;
#X obj 836 498 dewlfo;
#X obj 911 310 vsl 15 128 0.1 10 0 0 empty empty empty 0 -9 0 10 -262144
-1 -1 2800 1;
#X floatatom 393 98 5 0 0 0 - - -;
#X obj 248 188 dewlfo;
#X text 1108 412 -Add default values to DEWCO -Add next VCO (NEDCO)
-Add VCF? -Add more wavetables to DEWCO -Envelope/LFO Module -Sequencer
-Clock Module (could also include this into LFO module) -Add wavetable
waveshaper? -S&H Sequencer? -Mixer Module;
#X obj 493 273 dewco2;
#X obj 680 101 vsl 15 128 0 1 0 0 empty empty empty 0 -9 0 10 -262144
-1 -1 4000 1;
#X obj 646 99 vsl 15 128 0 514 0 0 empty empty empty 0 -9 0 10 -262144
-1 -1 12700 1;
#X obj 770 50 nbx 5 14 -1e+037 1e+037 0 0 empty empty empty 0 -8 0
10 -262144 -1 -1 -5 256;
#X msg 796 405 0;
#X obj 540 109 vsl 15 128 0 514 0 0 empty empty empty 0 -9 0 10 -262144
-1 -1 12700 1;
#X connect 1 0 2 0;
#X connect 1 0 7 0;
#X connect 1 0 14 0;
#X connect 2 0 17 0;
#X connect 3 0 17 3;
#X connect 5 0 15 0;
#X connect 6 0 17 4;
#X connect 7 0 6 0;
#X connect 7 0 8 0;
#X connect 8 0 6 0;
#X connect 9 0 10 2;
#X connect 9 0 11 2;
#X connect 10 0 0 0;
#X connect 10 0 0 1;
#X connect 11 0 0 0;
#X connect 11 0 0 1;
#X connect 12 0 10 1;
#X connect 12 0 11 1;
#X connect 13 0 12 0;
#X connect 15 0 17 2;
#X connect 17 0 11 0;
#X connect 17 1 10 0;
#X connect 18 0 17 6;
#X connect 19 0 17 5;
#X connect 20 0 7 1;
#X connect 21 0 10 2;
#X connect 21 0 11 2;
#X connect 22 0 17 1;
