#N canvas 533 45 1156 870 12;
#X obj 658 681 dac~;
#X obj 373 61 hsl 128 15 0 127 0 0 empty empty empty -2 -8 0 10 -262144
-1 -1 1500 1;
#X obj 373 152 mtof~;
#X obj 590 20 hsl 128 15 0 514 0 0 empty empty empty -2 -8 0 10 -262144
-1 -1 9300 1;
#X text 372 40 pitch1 input;
#X obj 100 33 vsl 15 128 0 20 0 0 empty empty empty 0 -9 0 10 -262144
-1 -1 0 1;
#X obj 220 60 vsl 15 128 0 10 0 0 empty empty empty 0 -9 0 10 -262144
-1 -1 2600 1;
#X text 103 6 wave fold1;
#X text 194 22 wave fold2;
#X obj 727 153 mtof~;
#X obj 745 94 +;
#X floatatom 776 124 5 0 0 0 - - -;
#X msg 836 412 0.1, f 4;
#X obj 736 570 dewca;
#X obj 591 574 dewca;
#X obj 836 498 dewlfo;
#X obj 911 310 vsl 15 128 0.1 10 0 0 empty empty empty 0 -9 0 10 -262144
-1 -1 1600 1;
#X obj 112 183 dewlfo;
#X floatatom 393 98 5 0 0 0 - - -;
#X obj 248 188 dewlfo;
#X text 1108 412 -Add default values to DEWCO -Add next VCO (NEDCO)
-Add VCF? -Add more wavetables to DEWCO -Envelope/LFO Module -Sequencer
-Clock Module (could also include this into LFO module) -Add wavetable
waveshaper? -S&H Sequencer? -Mixer Module;
#X obj 494 264 dewco2;
#X obj 510 93 vsl 15 128 0 514 0 0 empty empty empty 0 -9 0 10 -262144
-1 -1 1700 1;
#X obj 680 101 vsl 15 128 0 1 0 0 empty empty empty 0 -9 0 10 -262144
-1 -1 7900 1;
#X obj 646 99 vsl 15 128 0 514 0 0 empty empty empty 0 -9 0 10 -262144
-1 -1 8300 1;
#X obj 770 50 nbx 5 14 -1e+037 1e+037 0 0 empty empty empty 0 -8 0
10 -262144 -1 -1 7 256;
#X msg 796 405 0;
#X connect 1 0 2 0;
#X connect 1 0 10 0;
#X connect 1 0 18 0;
#X connect 2 0 21 0;
#X connect 3 0 21 3;
#X connect 5 0 17 0;
#X connect 6 0 19 0;
#X connect 9 0 21 4;
#X connect 10 0 9 0;
#X connect 10 0 11 0;
#X connect 11 0 9 0;
#X connect 12 0 13 2;
#X connect 12 0 14 2;
#X connect 13 0 0 0;
#X connect 13 0 0 1;
#X connect 14 0 0 0;
#X connect 14 0 0 1;
#X connect 15 0 13 1;
#X connect 15 0 14 1;
#X connect 16 0 15 0;
#X connect 21 0 14 0;
#X connect 21 1 13 0;
#X connect 22 0 21 1;
#X connect 23 0 21 6;
#X connect 24 0 21 5;
#X connect 25 0 10 1;
#X connect 26 0 13 2;
#X connect 26 0 14 2;
